<svg xmlns="http://www.w3.org/2000/svg" viewBox="0 0 691.03 310.1"><defs><style>.cls-1,.cls-3{fill:none;stroke:#000;stroke-miterlimit:10;stroke-width:1.3px;}.cls-1{stroke-linecap:round;}.cls-2{fill:#fff;}</style></defs><g id="レイヤー_2" data-name="レイヤー 2"><g id="レイヤー_1-2" data-name="レイヤー 1"><path d="M47.73,295.1c0,3.93-2.55,6.15-6.57,6.15H35v8.16a.57.57,0,0,1-.57.57.55.55,0,0,1-.54-.57V290.06A1.05,1.05,0,0,1,35,289H41.4C45.18,289,47.73,291.23,47.73,295.1Zm-12.78-5v10.08h6.33c3.84,0,5.34-2.1,5.34-5s-1.65-5.07-5.16-5.07Z"/><path d="M71.2,289.52a.56.56,0,0,1-.57.54h-11v8.7H70.39a.56.56,0,1,1,0,1.11H59.62v8.88H70.69a.59.59,0,0,1,.57.57.55.55,0,0,1-.57.54H59.62a1,1,0,0,1-1.11-1.11V290.06A1,1,0,0,1,59.62,289h11A.55.55,0,0,1,71.2,289.52Z"/><path d="M96.27,295.06c0,3.69-2.22,5.41-5.88,5.83l6.45,8.16a.58.58,0,0,1,.12.36.57.57,0,0,1-1,.36l-6.25-7.92a1.76,1.76,0,0,0-1.65-.93H83.43v8.49a.59.59,0,0,1-.57.57.56.56,0,0,1-.54-.57V290.06A1.05,1.05,0,0,1,83.43,289h6.42C93.81,289,96.27,291.17,96.27,295.06Zm-12.84-5v9.75h6.09c4,0,5.64-1.9,5.64-4.75s-1.74-5-5.1-5Z"/><path d="M119.59,290.44a.56.56,0,0,1-.31,1c-.17,0-.26,0-.53-.23a8.64,8.64,0,0,0-4.68-1.41c-4.25,0-5.79,2.1-5.79,4.32,0,3.09,3,3.87,6.21,4.56,3.66.78,7,1.71,7,5.43s-2.64,6-7.17,6a12,12,0,0,1-7.13-2.16.56.56,0,0,1-.33-.51.57.57,0,0,1,.57-.57.77.77,0,0,1,.42.17,10,10,0,0,0,6.35,2c3.87,0,6.18-1.74,6.18-4.86,0-2.91-2.67-3.63-6.09-4.35s-7.07-1.86-7.07-5.64c0-3.3,2.6-5.43,6.89-5.43A9.14,9.14,0,0,1,119.59,290.44Z"/><path d="M131.47,301.82a33,33,0,0,1,0-4.87,8.4,8.4,0,0,1,16.8,0,33,33,0,0,1,0,4.87c-.34,4.74-3.78,8.28-8.4,8.28S131.83,306.56,131.47,301.82Zm15.65.21a25.39,25.39,0,0,0,0-5.23c-.39-4-3.3-7-7.25-7s-6.85,3-7.24,7a25.39,25.39,0,0,0,0,5.23c.39,4,3.3,7,7.24,7S146.73,306,147.12,302Z"/><path d="M162.15,289.52l12.69,19.29h.06V289.4a.55.55,0,0,1,.54-.57.55.55,0,0,1,.57.57v19.44a1,1,0,0,1-1,1.14,1.29,1.29,0,0,1-1.11-.69l-12.69-19.23h-.06v19.35a.55.55,0,0,1-.57.57.56.56,0,0,1-.54-.57V290a1,1,0,0,1,1-1.14A1.29,1.29,0,0,1,162.15,289.52Z"/><path d="M473.15,289.4v20a.55.55,0,0,1-.55.57.56.56,0,0,1-.56-.57v-20a.56.56,0,1,1,1.11,0Z"/><path d="M487.87,289.52l12.69,19.29h.06V289.4a.55.55,0,0,1,.54-.57.55.55,0,0,1,.57.57v19.44a1,1,0,0,1-1.05,1.14,1.29,1.29,0,0,1-1.11-.69l-12.69-19.23h-.06v19.35a.55.55,0,0,1-.57.57.56.56,0,0,1-.54-.57V290a1,1,0,0,1,1.05-1.14A1.29,1.29,0,0,1,487.87,289.52Z"/><path d="M528.11,289.51a.57.57,0,0,1-.59.55h-6.87v19.32a.58.58,0,0,1-.57.6.54.54,0,0,1-.54-.6V290.06h-6.93a.6.6,0,0,1-.6-.57.55.55,0,0,1,.6-.54h14.91A.56.56,0,0,1,528.11,289.51Z"/><path d="M551.07,289.52a.57.57,0,0,1-.58.54h-11v8.7h10.76a.56.56,0,0,1,.57.54.56.56,0,0,1-.57.57H539.49v8.88h11.07a.58.58,0,0,1,.56.57.54.54,0,0,1-.56.54H539.49a1,1,0,0,1-1.11-1.11V290.06a1,1,0,0,1,1.11-1.11h11A.56.56,0,0,1,551.07,289.52Z"/><path d="M576.13,295.06c0,3.69-2.22,5.41-5.88,5.83l6.45,8.16a.58.58,0,0,1,.12.36.56.56,0,0,1-.57.57.54.54,0,0,1-.43-.21l-6.26-7.92a1.76,1.76,0,0,0-1.65-.93h-4.62v8.49a.59.59,0,0,1-.57.57.56.56,0,0,1-.54-.57V290.06a1.05,1.05,0,0,1,1.11-1.11h6.42C573.67,289,576.13,291.17,576.13,295.06Zm-12.84-5v9.75h6.09c4,0,5.64-1.9,5.64-4.75s-1.74-5-5.1-5Z"/><path d="M590,289.52l12.69,19.29h.06V289.4a.55.55,0,0,1,.54-.57.55.55,0,0,1,.57.57v19.44a1,1,0,0,1-1,1.14,1.29,1.29,0,0,1-1.11-.69L589,290.06H589v19.35a.55.55,0,0,1-.57.57.56.56,0,0,1-.54-.57V290a1,1,0,0,1,1-1.14A1.29,1.29,0,0,1,590,289.52Z"/><path d="M629.18,289.52a.56.56,0,0,1-.57.54h-11v8.7h10.77a.56.56,0,1,1,0,1.11H617.6v8.88h11.07a.59.59,0,0,1,.57.57.55.55,0,0,1-.57.54H617.6a1,1,0,0,1-1.11-1.11V290.06A1,1,0,0,1,617.6,289h11A.55.55,0,0,1,629.18,289.52Z"/><path d="M655,289.51a.58.58,0,0,1-.6.55h-6.87v19.32a.58.58,0,0,1-.57.6.54.54,0,0,1-.54-.6V290.06H639.5a.6.6,0,0,1-.6-.57.55.55,0,0,1,.6-.54h14.91A.57.57,0,0,1,655,289.51Z"/><path class="cls-1" d="M208.85,226.38c-1.94-8.93-10.84-31.16-29.61-50-15.16-15.22-31-21.08-41.87-24.83-12.13-4.17-16.13-12.17-9.13-22.17,4.13-5.91,5-7,11.9-17.46,6.23-9.44,15.31-21.53,16.53-47,1.57-32.57-15.43-64.57-52-64.29"/><path class="cls-1" d="M.65,226.38c1.94-8.93,10.84-31.16,29.61-50,15.16-15.22,31-21.08,41.87-24.83,12.13-4.17,16.13-12.17,9.13-22.17-4.13-5.91-5-7-11.9-17.46-6.23-9.44-15.31-21.53-16.53-47C51.26,32.37,73.24.37,104.85.65"/><path class="cls-1" d="M208.85,226.38c-1.94-8.93-10.84-31.16-29.61-50-15.16-15.22-31-21.08-41.87-24.83-12.13-4.17-16.13-12.17-9.13-22.17,4.13-5.91,5-7,11.9-17.46,6.23-9.44,15.31-21.53,16.53-47,1.57-32.57-15.43-64.57-52-64.29"/><path class="cls-1" d="M.65,226.38c1.94-8.93,10.84-31.16,29.61-50,15.16-15.22,31-21.08,41.87-24.83,12.13-4.17,16.13-12.17,9.13-22.17-4.13-5.91-5-7-11.9-17.46-6.23-9.44-15.31-21.53-16.53-47C51.26,32.37,73.24.37,104.85.65"/><line class="cls-1" x1="87.71" y1="82.72" x2="87.71" y2="86.55"/><line class="cls-1" x1="120.43" y1="82.72" x2="120.43" y2="86.55"/><rect class="cls-1" x="84.99" y="189.3" width="43.31" height="75.25" rx="6.65"/><circle class="cls-1" cx="566.74" cy="135.17" r="107"/><line class="cls-1" x1="565.91" y1="28.4" x2="565.91" y2="241.35"/><path class="cls-1" d="M565.91,28.09C617,40.71,633,92.35,631.76,138.38c-1.19,43.74-21.52,95.73-65.85,103.71"/><path class="cls-1" d="M468.45,172.94a179.57,179.57,0,0,0,198.22,0"/><path class="cls-1" d="M466.81,95.77a179.55,179.55,0,0,1,198.21,0"/><line class="cls-1" x1="461.38" y1="134.35" x2="672.09" y2="136"/><path class="cls-1" d="M565.5,28.09c-51.13,12.62-67.1,64.26-65.84,110.29,1.19,43.74,21.52,95.73,65.84,103.71"/><path class="cls-1" d="M677,155.31c13.86,23.69,17.69,44.39,8.2,56.55-19.08,24.46-84.79,5.1-146.77-43.24S441.61,61.26,460.69,36.79c9.76-12.51,31.74-13.56,59.18-5.11"/><rect class="cls-1" x="222.84" y="37.74" width="184.03" height="51.97" rx="11.91"/><circle class="cls-1" cx="249.63" cy="63.72" r="10.82"/><line class="cls-1" x1="273.53" y1="58.54" x2="365.31" y2="58.54"/><line class="cls-1" x1="273.53" y1="69.04" x2="334.49" y2="69.04"/><line class="cls-2" x1="427.64" y1="134.26" x2="210.35" y2="134.26"/><line class="cls-3" x1="427.64" y1="134.26" x2="211.76" y2="134.26"/><polygon points="216.06 128.94 216.95 129.9 212.26 134.26 216.95 138.63 216.06 139.58 210.35 134.26 216.06 128.94"/></g></g></svg>