<svg xmlns="http://www.w3.org/2000/svg" viewBox="0 0 672.5 362.38"><defs><style>.cls-1{fill:#fff;}</style></defs><g id="レイヤー_2" data-name="レイヤー 2"><g id="レイヤー_1-2" data-name="レイヤー 1"><line class="cls-1" x1="440.67" y1="108.59" x2="223.38" y2="108.59"/><rect x="224.79" y="107.94" width="215.88" height="1.3"/><polygon points="229.1 103.27 229.98 104.23 225.29 108.59 229.98 112.95 229.1 113.91 223.38 108.59 229.1 103.27"/><line class="cls-1" x1="223.38" y1="165.8" x2="440.67" y2="165.8"/><rect x="223.38" y="165.14" width="215.88" height="1.3"/><polygon points="434.95 171.11 434.06 170.16 438.76 165.8 434.06 161.43 434.95 160.48 440.67 165.8 434.95 171.11"/><path d="M48.73,347.38c0,3.93-2.55,6.15-6.57,6.15H36v8.16a.57.57,0,0,1-.57.57.55.55,0,0,1-.54-.57V342.34A1.05,1.05,0,0,1,36,341.23H42.4C46.18,341.23,48.73,343.51,48.73,347.38Zm-12.78-5v10.08h6.33c3.84,0,5.34-2.1,5.34-5s-1.65-5.07-5.16-5.07Z"/><path d="M72.2,341.8a.56.56,0,0,1-.57.54h-11V351H71.39a.56.56,0,1,1,0,1.11H60.62V361H71.69a.59.59,0,0,1,.57.57.55.55,0,0,1-.57.54H60.62A1,1,0,0,1,59.51,361V342.34a1,1,0,0,1,1.11-1.11h11A.55.55,0,0,1,72.2,341.8Z"/><path d="M97.27,347.34c0,3.69-2.22,5.41-5.88,5.83l6.45,8.16a.58.58,0,0,1,.12.36.57.57,0,0,1-1,.36l-6.25-7.92a1.76,1.76,0,0,0-1.65-.93H84.43v8.49a.59.59,0,0,1-.57.57.56.56,0,0,1-.54-.57V342.34a1.05,1.05,0,0,1,1.11-1.11h6.42C94.81,341.23,97.27,343.45,97.27,347.34Zm-12.84-5v9.75h6.09c4,0,5.64-1.9,5.64-4.75s-1.74-5-5.1-5Z"/><path d="M120.59,342.72a.56.56,0,0,1-.31,1c-.16,0-.26-.05-.53-.23a8.61,8.61,0,0,0-4.67-1.41c-4.26,0-5.8,2.1-5.8,4.32,0,3.09,3,3.87,6.21,4.56,3.67.78,7,1.71,7,5.43s-2.64,6-7.17,6a12,12,0,0,1-7.13-2.16.57.57,0,0,1,.24-1.08.77.77,0,0,1,.42.17,10.07,10.07,0,0,0,6.35,2c3.87,0,6.18-1.74,6.18-4.86,0-2.91-2.67-3.63-6.09-4.35s-7.07-1.86-7.07-5.64c0-3.3,2.6-5.43,6.9-5.43A9.14,9.14,0,0,1,120.59,342.72Z"/><path d="M132.47,354.1a33,33,0,0,1,0-4.87,8.4,8.4,0,0,1,16.8,0,33,33,0,0,1,0,4.87c-.34,4.74-3.78,8.28-8.4,8.28S132.83,358.84,132.47,354.1Zm15.65.21a25.39,25.39,0,0,0,0-5.23c-.39-4-3.3-7-7.25-7s-6.85,3-7.24,7a25.39,25.39,0,0,0,0,5.23c.39,4,3.3,7,7.24,7S147.73,358.29,148.12,354.31Z"/><path d="M163.15,341.8l12.69,19.29h.06V341.68a.55.55,0,0,1,.54-.57.55.55,0,0,1,.57.57v19.44a1,1,0,0,1-1,1.14,1.29,1.29,0,0,1-1.11-.69l-12.69-19.23h-.06v19.35a.55.55,0,0,1-.57.57.56.56,0,0,1-.54-.57V342.25a1,1,0,0,1,1-1.14A1.29,1.29,0,0,1,163.15,341.8Z"/><path d="M507.55,347.38c0,3.93-2.55,6.15-6.57,6.15h-6.21v8.16a.57.57,0,0,1-.57.57.55.55,0,0,1-.54-.57V342.34a1.05,1.05,0,0,1,1.11-1.11h6.45C505,341.23,507.55,343.51,507.55,347.38Zm-12.78-5v10.08h6.33c3.84,0,5.34-2.1,5.34-5s-1.65-5.07-5.16-5.07Z"/><path d="M531,341.8a.56.56,0,0,1-.57.54h-11V351h10.77a.56.56,0,1,1,0,1.11H519.44V361h11.07a.59.59,0,0,1,.57.57.55.55,0,0,1-.57.54H519.44a1,1,0,0,1-1.11-1.11V342.34a1,1,0,0,1,1.11-1.11h11A.55.55,0,0,1,531,341.8Z"/><path d="M556.09,347.34c0,3.69-2.22,5.41-5.88,5.83l6.45,8.16a.58.58,0,0,1,.12.36.57.57,0,0,1-1,.36l-6.25-7.92a1.76,1.76,0,0,0-1.65-.93h-4.62v8.49a.59.59,0,0,1-.57.57.56.56,0,0,1-.54-.57V342.34a1.05,1.05,0,0,1,1.11-1.11h6.42C553.63,341.23,556.09,343.45,556.09,347.34Zm-12.84-5v9.75h6.09c4,0,5.64-1.9,5.64-4.75s-1.74-5-5.1-5Z"/><path d="M579.41,342.72a.56.56,0,0,1-.31,1c-.17,0-.26-.05-.53-.23a8.64,8.64,0,0,0-4.68-1.41c-4.26,0-5.79,2.1-5.79,4.32,0,3.09,3,3.87,6.21,4.56,3.66.78,7,1.71,7,5.43s-2.64,6-7.17,6a12,12,0,0,1-7.14-2.16.57.57,0,0,1,.24-1.08.72.72,0,0,1,.42.17,10.1,10.1,0,0,0,6.36,2c3.87,0,6.18-1.74,6.18-4.86,0-2.91-2.67-3.63-6.09-4.35S567,350.2,567,346.42c0-3.3,2.61-5.43,6.9-5.43A9.17,9.17,0,0,1,579.41,342.72Z"/><path d="M591.29,354.1a33,33,0,0,1,0-4.87,8.4,8.4,0,0,1,16.8,0,33,33,0,0,1,0,4.87c-.34,4.74-3.78,8.28-8.4,8.28S591.65,358.84,591.29,354.1Zm15.65.21a25.39,25.39,0,0,0,0-5.23c-.39-4-3.3-7-7.25-7s-6.85,3-7.24,7a25.39,25.39,0,0,0,0,5.23c.39,4,3.3,7,7.24,7S606.55,358.29,606.94,354.31Z"/><path d="M622,341.8l12.69,19.29h.05V341.68a.55.55,0,0,1,.54-.57.56.56,0,0,1,.58.57v19.44a1,1,0,0,1-1.06,1.14,1.29,1.29,0,0,1-1.11-.69L621,342.34h-.07v19.35a.54.54,0,0,1-.56.57.56.56,0,0,1-.54-.57V342.25a1,1,0,0,1,1.05-1.14A1.3,1.3,0,0,1,622,341.8Z"/><line class="cls-1" x1="136.74" y1="105.5" x2="136.74" y2="110"/><path d="M136.74,110.65a.65.65,0,0,1-.65-.65v-4.5a.65.65,0,0,1,1.3,0V110A.65.65,0,0,1,136.74,110.65Z"/><path d="M208.85,279.31a.64.64,0,0,1-.63-.51c-2.26-10.36-12-32.14-29.44-49.69-15.71-15.77-32.57-21.56-41.62-24.68-6.75-2.32-11.07-5.85-12.49-10.21-1.27-3.9-.25-8.25,3-12.94l1.93-2.74c2.67-3.8,4.28-6.09,10-14.7l1.15-1.74c6-8.93,14.13-21.18,15.27-44.91.95-19.81-4.91-37.86-16.1-49.5-8.87-9.24-20.9-14.11-34.8-14.11h-.47a.65.65,0,0,1-.65-.64.66.66,0,0,1,.65-.66h.47c14.27,0,26.62,5,35.74,14.51,11.43,11.9,17.43,30.3,16.46,50.47-1.16,24.09-9.44,36.5-15.49,45.57l-1.15,1.72c-5.7,8.64-7.31,10.93-10,14.74L128.77,182c-3,4.34-4,8.31-2.87,11.8,1.29,4,5.33,7.2,11.68,9.39,9.16,3.14,26.19,9,42.12,25,19.06,19.13,27.82,41.29,29.79,50.33a.65.65,0,0,1-.5.77Z"/><path d="M.65,279.31l-.14,0a.65.65,0,0,1-.5-.77c2-9,10.74-31.2,29.79-50.33,15.93-16,33-21.84,42.12-25,6.35-2.19,10.39-5.43,11.68-9.39,1.13-3.49.17-7.46-2.87-11.8l-1.92-2.73c-2.68-3.81-4.29-6.1-10-14.74l-1.15-1.72c-6.05-9.07-14.33-21.48-15.49-45.57-.89-18.59,5.8-37.2,17.91-49.79,9.56-9.94,21.42-15.19,34.34-15.19h.43a.66.66,0,0,1,.64.66.65.65,0,0,1-.65.64h-.42c-12.55,0-24.1,5.11-33.41,14.79C59.16,80.71,52.6,99,53.48,117.19c1.14,23.73,9.31,36,15.27,44.91l1.15,1.74c5.69,8.61,7.3,10.9,10,14.7l1.93,2.74c3.28,4.69,4.3,9,3,12.94-1.42,4.36-5.74,7.89-12.49,10.21-9.05,3.12-25.91,8.91-41.62,24.68C13.24,246.66,3.54,268.44,1.29,278.8A.66.66,0,0,1,.65,279.31Z"/><path d="M463.65,279.31l-.14,0a.64.64,0,0,1-.49-.77c2-9,10.73-31.2,29.78-50.33,15.93-16,33-21.84,42.12-25,6.35-2.19,10.39-5.43,11.68-9.39,1.13-3.49.17-7.46-2.87-11.8l-1.93-2.74c-2.67-3.81-4.29-6.1-10-14.73l-1.15-1.73c-6-9.06-14.33-21.48-15.49-45.56-1-20.17,5-38.57,16.46-50.47,9.12-9.5,21.47-14.51,35.74-14.51h.48a.66.66,0,0,1,.64.66.65.65,0,0,1-.65.64h-.47c-13.9,0-25.93,4.87-34.8,14.11-11.18,11.64-17.05,29.69-16.1,49.5,1.14,23.73,9.31,36,15.27,44.91l1.15,1.74c5.69,8.61,7.3,10.89,10,14.69l1.93,2.75c3.28,4.69,4.3,9,3,12.94-1.42,4.36-5.74,7.89-12.49,10.21-9.05,3.12-25.9,8.91-41.62,24.68-17.47,17.54-27.18,39.33-29.44,49.69A.64.64,0,0,1,463.65,279.31Z"/><line class="cls-1" x1="535.76" y1="105.5" x2="535.76" y2="110"/><path d="M535.76,110.65a.65.65,0,0,1-.65-.65v-4.5a.65.65,0,1,1,1.3,0V110A.65.65,0,0,1,535.76,110.65Z"/><path d="M671.85,279.31a.64.64,0,0,1-.63-.51c-2.26-10.36-12-32.14-29.44-49.69-15.71-15.77-32.57-21.56-41.62-24.68-6.75-2.32-11.07-5.85-12.49-10.21-1.27-3.9-.25-8.25,3-12.94l1.92-2.73c2.67-3.8,4.28-6.09,10-14.71l1.15-1.74c6-8.93,14.13-21.18,15.27-44.91.88-18.23-5.68-36.48-17.54-48.82-9.31-9.68-20.86-14.79-33.41-14.79h-.42a.64.64,0,0,1-.65-.64.66.66,0,0,1,.64-.66h.43c12.92,0,24.78,5.25,34.34,15.19,12.11,12.59,18.8,31.2,17.91,49.79-1.16,24.09-9.44,36.5-15.49,45.57l-1.15,1.72c-5.7,8.64-7.32,10.94-10,14.75L591.77,182c-3,4.34-4,8.31-2.87,11.8,1.29,4,5.33,7.2,11.68,9.39,9.16,3.14,26.19,9,42.12,25,19.06,19.13,27.82,41.29,29.79,50.33a.65.65,0,0,1-.5.77Z"/><path d="M471.89,71.83l-4.74-7.25a16,16,0,0,0-13.46-7.28H369.24a28.65,28.65,0,0,1,0-57.3h95a28.65,28.65,0,0,1,8.89,55.89,1.82,1.82,0,0,0-1.24,1.73ZM369.24,1.3a27.35,27.35,0,0,0,0,54.7h84.45a17.35,17.35,0,0,1,14.55,7.87l2.35,3.6V57.62a3.11,3.11,0,0,1,2.14-3A27.36,27.36,0,0,0,464.24,1.3Z"/></g></g></svg>