<svg xmlns="http://www.w3.org/2000/svg" viewBox="0 0 1098.96 310.1"><defs><style>.cls-1{fill:#fff;}</style></defs><g id="レイヤー_2" data-name="レイヤー 2"><g id="レイヤー_1-2" data-name="レイヤー 1"><path d="M455.64,295.1c0,3.93-2.55,6.15-6.57,6.15h-6.21v8.16a.57.57,0,0,1-.57.57.55.55,0,0,1-.54-.57V290.06a1.05,1.05,0,0,1,1.11-1.11h6.45C453.09,289,455.64,291.23,455.64,295.1Zm-12.78-5v10.08h6.33c3.84,0,5.34-2.1,5.34-5s-1.65-5.07-5.16-5.07Z"/><path d="M479.12,289.52a.56.56,0,0,1-.57.54h-11v8.7h10.77a.56.56,0,1,1,0,1.11H467.54v8.88h11.07a.59.59,0,0,1,.57.57.55.55,0,0,1-.57.54H467.54a1,1,0,0,1-1.11-1.11V290.06a1,1,0,0,1,1.11-1.11h11A.55.55,0,0,1,479.12,289.52Z"/><path d="M504.18,295.06c0,3.69-2.22,5.41-5.88,5.83l6.45,8.16a.58.58,0,0,1,.12.36.56.56,0,0,1-.57.57.54.54,0,0,1-.43-.21l-6.26-7.92a1.76,1.76,0,0,0-1.65-.93h-4.62v8.49a.59.59,0,0,1-.56.57.56.56,0,0,1-.54-.57V290.06a1,1,0,0,1,1.1-1.11h6.42C501.72,289,504.18,291.17,504.18,295.06Zm-12.84-5v9.75h6.09c4.05,0,5.64-1.9,5.64-4.75s-1.74-5-5.1-5Z"/><path d="M527.51,290.44a.57.57,0,0,1,.24.46.57.57,0,0,1-.56.56c-.16,0-.25,0-.52-.23a8.64,8.64,0,0,0-4.68-1.41c-4.26,0-5.79,2.1-5.79,4.32,0,3.09,3,3.87,6.21,4.56,3.66.78,7,1.71,7,5.43s-2.64,6-7.17,6a12,12,0,0,1-7.14-2.16.57.57,0,0,1,.24-1.08.72.72,0,0,1,.42.17,10.1,10.1,0,0,0,6.36,2c3.87,0,6.18-1.74,6.18-4.86,0-2.91-2.67-3.63-6.09-4.35s-7.08-1.86-7.08-5.64c0-3.3,2.61-5.43,6.9-5.43A9.17,9.17,0,0,1,527.51,290.44Z"/><path d="M539.39,301.82a33,33,0,0,1,0-4.87,8.4,8.4,0,0,1,16.8,0,33,33,0,0,1,0,4.87c-.35,4.74-3.78,8.28-8.4,8.28S539.75,306.56,539.39,301.82ZM555,302a25.39,25.39,0,0,0,0-5.23c-.39-4-3.3-7-7.24-7s-6.86,3-7.25,7a25.39,25.39,0,0,0,0,5.23c.39,4,3.3,7,7.25,7S554.64,306,555,302Z"/><path d="M570.06,289.52l12.69,19.29h.06V289.4a.55.55,0,0,1,.54-.57.55.55,0,0,1,.57.57v19.44a1,1,0,0,1-1,1.14,1.29,1.29,0,0,1-1.11-.69l-12.69-19.23H569v19.35a.55.55,0,0,1-.57.57.56.56,0,0,1-.54-.57V290a1,1,0,0,1,1.05-1.14A1.29,1.29,0,0,1,570.06,289.52Z"/><path d="M63,295.1c0,3.93-2.55,6.15-6.57,6.15H50.24v8.16a.57.57,0,0,1-.57.57.55.55,0,0,1-.54-.57V290.06A1.05,1.05,0,0,1,50.24,289h6.45C60.47,289,63,291.23,63,295.1Zm-12.78-5v10.08h6.33c3.84,0,5.34-2.1,5.34-5s-1.65-5.07-5.16-5.07Z"/><path d="M86.49,289.52a.56.56,0,0,1-.57.54h-11v8.7H85.68a.56.56,0,1,1,0,1.11H74.91v8.88H86a.59.59,0,0,1,.57.57.55.55,0,0,1-.57.54H74.91a1,1,0,0,1-1.11-1.11V290.06A1,1,0,0,1,74.91,289h11A.55.55,0,0,1,86.49,289.52Z"/><path d="M111.56,295.06c0,3.69-2.22,5.41-5.88,5.83l6.45,8.16a.58.58,0,0,1,.12.36.57.57,0,0,1-.57.57.58.58,0,0,1-.44-.21L105,301.85a1.76,1.76,0,0,0-1.65-.93H98.72v8.49a.59.59,0,0,1-.57.57.56.56,0,0,1-.54-.57V290.06A1.05,1.05,0,0,1,98.72,289h6.42C109.1,289,111.56,291.17,111.56,295.06Zm-12.84-5v9.75h6.09c4,0,5.64-1.9,5.64-4.75s-1.74-5-5.1-5Z"/><path d="M134.89,290.44a.57.57,0,0,1,.24.46.57.57,0,0,1-.56.56c-.16,0-.25,0-.52-.23a8.64,8.64,0,0,0-4.68-1.41c-4.26,0-5.79,2.1-5.79,4.32,0,3.09,3,3.87,6.21,4.56,3.66.78,7,1.71,7,5.43s-2.64,6-7.17,6a12,12,0,0,1-7.14-2.16.57.57,0,0,1,.24-1.08.74.74,0,0,1,.42.17,10.1,10.1,0,0,0,6.36,2c3.87,0,6.18-1.74,6.18-4.86,0-2.91-2.67-3.63-6.09-4.35s-7.08-1.86-7.08-5.64c0-3.3,2.61-5.43,6.9-5.43A9.17,9.17,0,0,1,134.89,290.44Z"/><path d="M146.77,301.82a33,33,0,0,1,0-4.87c.33-4.62,3.77-8.24,8.39-8.24a8.5,8.5,0,0,1,8.4,8.24,33,33,0,0,1,0,4.87c-.34,4.74-3.78,8.28-8.4,8.28S147.12,306.56,146.77,301.82Zm15.64.21a25.39,25.39,0,0,0,0-5.23c-.39-4-3.3-7-7.25-7s-6.85,3-7.24,7a25.39,25.39,0,0,0,0,5.23c.39,4,3.3,7,7.24,7S162,306,162.41,302Z"/><path d="M177.44,289.52l12.69,19.29h.06V289.4a.55.55,0,0,1,.54-.57.55.55,0,0,1,.57.57v19.44a1,1,0,0,1-1.05,1.14,1.29,1.29,0,0,1-1.11-.69l-12.69-19.23h-.06v19.35a.55.55,0,0,1-.57.57.56.56,0,0,1-.54-.57V290a1,1,0,0,1,1.05-1.14A1.29,1.29,0,0,1,177.44,289.52Z"/><path d="M881.07,289.4v20a.56.56,0,0,1-.56.57.55.55,0,0,1-.55-.57v-20a.56.56,0,1,1,1.11,0Z"/><path d="M895.79,289.52l12.69,19.29h.06V289.4a.55.55,0,0,1,.54-.57.55.55,0,0,1,.57.57v19.44a1,1,0,0,1-1,1.14,1.29,1.29,0,0,1-1.11-.69L894.8,290.06h-.06v19.35a.55.55,0,0,1-.57.57.56.56,0,0,1-.54-.57V290a1,1,0,0,1,1-1.14A1.29,1.29,0,0,1,895.79,289.52Z"/><path d="M936,289.51a.58.58,0,0,1-.6.55h-6.87v19.32a.58.58,0,0,1-.57.6.54.54,0,0,1-.54-.6V290.06h-6.93a.6.6,0,0,1-.6-.57.55.55,0,0,1,.6-.54h14.91A.57.57,0,0,1,936,289.51Z"/><path d="M959,289.52a.56.56,0,0,1-.57.54h-11v8.7h10.77a.56.56,0,1,1,0,1.11H947.4v8.88h11.07a.59.59,0,0,1,.57.57.55.55,0,0,1-.57.54H947.4a1,1,0,0,1-1.11-1.11V290.06A1,1,0,0,1,947.4,289h11A.55.55,0,0,1,959,289.52Z"/><path d="M984.05,295.06c0,3.69-2.22,5.41-5.88,5.83l6.45,8.16a.58.58,0,0,1,.12.36.57.57,0,0,1-1,.36l-6.25-7.92a1.76,1.76,0,0,0-1.65-.93h-4.62v8.49a.59.59,0,0,1-.57.57.56.56,0,0,1-.54-.57V290.06a1.05,1.05,0,0,1,1.11-1.11h6.42C981.59,289,984.05,291.17,984.05,295.06Zm-12.84-5v9.75h6.09c4.05,0,5.64-1.9,5.64-4.75s-1.74-5-5.1-5Z"/><path d="M997.94,289.52l12.69,19.29h.06V289.4a.55.55,0,0,1,.54-.57.55.55,0,0,1,.57.57v19.44a1,1,0,0,1-1,1.14,1.29,1.29,0,0,1-1.11-.69L997,290.06h-.06v19.35a.55.55,0,0,1-.57.57.57.57,0,0,1-.54-.57V290a1,1,0,0,1,1.05-1.14A1.29,1.29,0,0,1,997.94,289.52Z"/><path d="M1037.1,289.52a.56.56,0,0,1-.57.54h-11v8.7h10.77a.56.56,0,1,1,0,1.11h-10.77v8.88h11.07a.59.59,0,0,1,.57.57.55.55,0,0,1-.57.54h-11.07a1,1,0,0,1-1.11-1.11V290.06a1,1,0,0,1,1.11-1.11h11A.55.55,0,0,1,1037.1,289.52Z"/><path d="M1062.93,289.51a.58.58,0,0,1-.6.55h-6.87v19.32a.58.58,0,0,1-.57.6.54.54,0,0,1-.54-.6V290.06h-6.93a.6.6,0,0,1-.6-.57.55.55,0,0,1,.6-.54h14.91A.57.57,0,0,1,1062.93,289.51Z"/><line class="cls-1" x1="197.07" y1="76.32" x2="414.36" y2="76.32"/><rect x="197.07" y="75.67" width="215.88" height="1.3"/><polygon points="408.64 81.64 407.75 80.69 412.45 76.32 407.75 71.96 408.64 71.01 414.36 76.32 408.64 81.64"/><line class="cls-1" x1="823.01" y1="134.26" x2="605.72" y2="134.26"/><path d="M823,134.91h-1a.65.65,0,1,1,0-1.3h1a.65.65,0,0,1,0,1.3Z"/><path d="M815,134.91h-2a.65.65,0,1,1,0-1.3h2a.65.65,0,0,1,0,1.3Zm-9,0h-2a.65.65,0,1,1,0-1.3h2a.65.65,0,0,1,0,1.3Zm-9,0h-2a.65.65,0,1,1,0-1.3h2a.65.65,0,0,1,0,1.3Zm-9,0h-2a.65.65,0,1,1,0-1.3h2a.65.65,0,0,1,0,1.3Zm-9,0h-2a.65.65,0,1,1,0-1.3h2a.65.65,0,0,1,0,1.3Zm-9,0h-2a.65.65,0,1,1,0-1.3h2a.65.65,0,0,1,0,1.3Zm-9,0h-2a.65.65,0,1,1,0-1.3h2a.65.65,0,0,1,0,1.3Zm-9,0h-2a.65.65,0,1,1,0-1.3h2a.65.65,0,0,1,0,1.3Zm-9,0h-2a.65.65,0,1,1,0-1.3h2a.65.65,0,0,1,0,1.3Zm-9,0h-2a.65.65,0,1,1,0-1.3h2a.65.65,0,0,1,0,1.3Zm-9,0h-2a.65.65,0,1,1,0-1.3h2a.65.65,0,0,1,0,1.3Zm-9,0h-2a.65.65,0,1,1,0-1.3h2a.65.65,0,0,1,0,1.3Zm-9,0h-2a.65.65,0,1,1,0-1.3h2a.65.65,0,0,1,0,1.3Zm-9,0h-2a.65.65,0,1,1,0-1.3h2a.65.65,0,0,1,0,1.3Zm-9,0h-2a.65.65,0,1,1,0-1.3h2a.65.65,0,0,1,0,1.3Zm-9,0h-2a.65.65,0,1,1,0-1.3h2a.65.65,0,0,1,0,1.3Zm-9,0h-2a.65.65,0,1,1,0-1.3h2a.65.65,0,0,1,0,1.3Zm-9,0h-2a.65.65,0,1,1,0-1.3h2a.65.65,0,0,1,0,1.3Zm-9,0h-2a.65.65,0,1,1,0-1.3h2a.65.65,0,0,1,0,1.3Zm-9,0h-2a.65.65,0,1,1,0-1.3h2a.65.65,0,1,1,0,1.3Zm-9,0h-2a.65.65,0,1,1,0-1.3h2a.65.65,0,1,1,0,1.3Zm-9,0h-2a.65.65,0,1,1,0-1.3h2a.65.65,0,1,1,0,1.3Zm-9,0h-2a.65.65,0,1,1,0-1.3h2a.65.65,0,1,1,0,1.3Z"/><path d="M608.13,134.91h-1a.65.65,0,1,1,0-1.3h1a.65.65,0,1,1,0,1.3Z"/><polygon points="611.44 128.94 612.32 129.9 607.63 134.26 612.32 138.63 611.44 139.58 605.72 134.26 611.44 128.94"/><path d="M136.74,58.37a.65.65,0,0,1-.65-.65v-4.5a.65.65,0,1,1,1.3,0v4.5A.65.65,0,0,1,136.74,58.37Z"/><path d="M208.85,227a.64.64,0,0,1-.63-.51c-2.26-10.36-12-32.15-29.44-49.69-15.72-15.77-32.57-21.56-41.62-24.68-6.75-2.32-11.07-5.85-12.49-10.21-1.27-3.9-.25-8.25,3-12.94l1.93-2.75c2.67-3.8,4.28-6.09,10-14.69l1.15-1.74c6-8.93,14.13-21.18,15.27-44.91.95-19.81-4.91-37.86-16.1-49.5C131.05,6.17,119,1.3,105.12,1.3h-.47A.65.65,0,0,1,104,.66a.66.66,0,0,1,.65-.66h.47c14.27,0,26.62,5,35.74,14.51,11.43,11.9,17.43,30.3,16.46,50.47-1.16,24.09-9.44,36.5-15.49,45.57l-1.15,1.72c-5.69,8.63-7.31,10.92-10,14.73l-1.93,2.74c-3,4.34-4,8.31-2.87,11.8,1.29,4,5.33,7.2,11.68,9.39,9.16,3.14,26.19,9,42.12,25,19.05,19.13,27.81,41.29,29.79,50.33a.65.65,0,0,1-.5.77Z"/><path d="M.65,227l-.14,0a.64.64,0,0,1-.49-.77c2-9,10.72-31.2,29.78-50.33,15.93-16,33-21.84,42.12-25,6.35-2.19,10.39-5.43,11.68-9.39,1.13-3.49.17-7.46-2.87-11.8L78.82,127c-2.68-3.81-4.3-6.11-10-14.75l-1.15-1.72C61.62,101.48,53.34,89.07,52.18,65c-.89-18.59,5.8-37.2,17.91-49.79C79.75,5.14,91.75-.11,104.86,0a.66.66,0,0,1,.64.66.65.65,0,0,1-.65.64h-.42C91.88,1.3,80.33,6.41,71,16.09,59.16,28.43,52.6,46.68,53.48,64.91c1.14,23.73,9.31,36,15.27,44.91l1.15,1.74c5.7,8.62,7.31,10.91,10,14.71L81.8,129c3.28,4.69,4.3,9,3,12.94-1.42,4.36-5.74,7.89-12.49,10.21-9.05,3.12-25.9,8.91-41.62,24.68C13.24,194.38,3.54,216.16,1.28,226.52A.64.64,0,0,1,.65,227Z"/><path d="M616.76,227a.66.66,0,0,1-.63-.51c-2.26-10.36-12-32.14-29.44-49.69-15.71-15.77-32.56-21.56-41.61-24.68-6.76-2.32-11.08-5.85-12.5-10.21-1.26-3.9-.24-8.25,3-12.94l1.91-2.73c2.68-3.8,4.29-6.09,10-14.71l1.15-1.74c6-8.93,14.13-21.18,15.28-44.91.95-19.81-4.92-37.86-16.11-49.5C539,6.17,526.94,1.3,513,1.3h-.46a.66.66,0,0,1-.66-.64.66.66,0,0,1,.65-.66H513c14.27,0,26.62,5,35.74,14.51C560.2,26.41,566.2,44.81,565.23,65c-1.16,24.09-9.44,36.5-15.48,45.57l-1.15,1.72c-5.71,8.64-7.32,10.94-10,14.75l-1.92,2.72c-3,4.34-4,8.31-2.86,11.8,1.29,4,5.33,7.2,11.68,9.39,9.15,3.14,26.19,9,42.11,25,19.06,19.13,27.82,41.29,29.79,50.33a.64.64,0,0,1-.5.77Z"/><path d="M408.57,227l-.14,0a.64.64,0,0,1-.5-.77c2-9,10.73-31.2,29.79-50.33,15.92-16,33-21.84,42.11-25,6.36-2.19,10.39-5.43,11.68-9.39,1.14-3.49.17-7.46-2.86-11.8L486.74,127c-2.68-3.81-4.3-6.1-10-14.75l-1.15-1.73c-6-9.06-14.32-21.48-15.48-45.56-.9-18.59,5.8-37.2,17.9-49.79,9.67-10,21.67-15.3,34.77-15.19a.66.66,0,0,1,.65.66.62.62,0,0,1-.66.64h-.41c-12.56,0-24.1,5.11-33.41,14.79-11.86,12.34-18.42,30.59-17.54,48.82,1.14,23.73,9.3,36,15.27,44.91l1.15,1.74c5.69,8.62,7.31,10.92,10,14.71l1.91,2.73c3.28,4.69,4.31,9,3,12.94-1.42,4.36-5.74,7.89-12.5,10.21-9.05,3.12-25.9,8.91-41.61,24.68-17.48,17.54-27.18,39.33-29.44,49.69A.66.66,0,0,1,408.57,227Z"/><path d="M495.63,87.2a.65.65,0,0,1-.65-.65V82.72a.65.65,0,1,1,1.3,0v3.83A.65.65,0,0,1,495.63,87.2Z"/><path d="M528.34,87.2a.65.65,0,0,1-.65-.65V82.72a.65.65,0,1,1,1.3,0v3.83A.65.65,0,0,1,528.34,87.2Z"/><path d="M529.57,265.21h-30a7.32,7.32,0,0,1-7.31-7.3V196a7.32,7.32,0,0,1,7.31-7.31h30a7.32,7.32,0,0,1,7.3,7.31v62A7.32,7.32,0,0,1,529.57,265.21Zm-30-75.26a6,6,0,0,0-6,6v62a6,6,0,0,0,6,6h30a6,6,0,0,0,6-6V196a6,6,0,0,0-6-6Z"/><path d="M974.65,242.83A107.65,107.65,0,1,1,1082.3,135.18,107.78,107.78,0,0,1,974.65,242.83Zm0-214A106.35,106.35,0,1,0,1081,135.18,106.47,106.47,0,0,0,974.65,28.83Z"/><path d="M973.83,242a.65.65,0,0,1-.65-.65V28.4a.65.65,0,1,1,1.3,0v213A.65.65,0,0,1,973.83,242Z"/><path d="M973.83,242.74a.65.65,0,0,1-.12-1.29c20-3.6,36.84-16.79,48.65-38.12,9.95-18,16-41.67,16.67-65,.48-17.84-1.41-44-13.21-67.36C1014.55,48.71,997,34.48,973.67,28.72a.65.65,0,1,1,.32-1.26c23.71,5.86,41.54,20.31,53,43,11.92,23.59,13.84,50,13.34,68-.64,23.5-6.77,47.39-16.83,65.56-12,21.69-29.13,35.09-49.55,38.77Z"/><path d="M975.45,203.42h-1.73c-46.3-.45-81.09-18.95-97.71-29.93a.65.65,0,1,1,.72-1.08c16.49,10.9,51,29.26,97,29.71,47.66.47,83.4-18.42,100.5-29.71a.65.65,0,0,1,.9.18.66.66,0,0,1-.19.9C1057.93,184.72,1022.54,203.42,975.45,203.42Z"/><path d="M1072.94,96.42a.66.66,0,0,1-.36-.11c-16.89-11.16-52-29.72-98.77-29.72h-1.73c-46,.44-80.5,18.8-97,29.71a.65.65,0,0,1-.72-1.09c16.62-11,51.41-29.47,97.71-29.92h1.74c47.09,0,82.47,18.69,99.49,29.93a.65.65,0,0,1,.18.9A.66.66,0,0,1,1072.94,96.42Z"/><path d="M1080,136.65h0L869.29,135a.64.64,0,0,1-.64-.65.65.65,0,0,1,.65-.65h0L1080,135.35a.66.66,0,0,1,.65.65A.66.66,0,0,1,1080,136.65Z"/><path d="M973.42,242.74h-.12c-20.41-3.68-37.54-17.08-49.55-38.77-10-18.17-16.19-42.06-16.83-65.56-.49-18,1.43-44.39,13.35-68,11.44-22.65,29.27-37.1,53-43a.65.65,0,1,1,.31,1.26c-23.33,5.76-40.88,20-52.14,42.28-11.8,23.36-13.7,49.52-13.21,67.36.64,23.3,6.71,47,16.67,65,11.81,21.33,28.63,34.52,48.64,38.12a.65.65,0,0,1-.11,1.29Z"/><path d="M1065.49,223.12c-8.61,0-18.66-1.64-29.91-5-27.79-8.19-59.65-25.6-89.69-49s-54.69-50.08-69.4-75c-14.82-25.14-17.8-45.63-8.4-57.68C877.73,24,899,22.14,928,31.06a.65.65,0,1,1-.38,1.24c-28.42-8.75-49.19-7-58.47,4.89-9,11.61-6,31.58,8.49,56.23,14.63,24.83,39.17,51.36,69.08,74.69,43.64,34,89.21,53.72,118.76,53.72,12.17,0,21.62-3.33,27.1-10.37,9-11.54,6.07-31.36-8.25-55.82a.65.65,0,0,1,.24-.89.64.64,0,0,1,.88.23c14.61,25,17.5,45.3,8.16,57.28C1088,219.47,1078.32,223.12,1065.49,223.12Z"/><path d="M804.83,90.36h-4a.65.65,0,1,1,0-1.3h4a.65.65,0,0,1,0,1.3Zm-11,0h-2a.65.65,0,0,1,0-1.3h2a.65.65,0,0,1,0,1.3Zm-9,0h-2a.65.65,0,1,1,0-1.3h2a.65.65,0,1,1,0,1.3Zm-9,0h-2a.65.65,0,1,1,0-1.3h2a.65.65,0,0,1,0,1.3Zm-9,0h-2a.65.65,0,1,1,0-1.3h2a.65.65,0,0,1,0,1.3Zm-9,0h-2a.65.65,0,0,1,0-1.3h2a.65.65,0,0,1,0,1.3Zm-9,0h-2a.65.65,0,1,1,0-1.3h2a.65.65,0,0,1,0,1.3Zm-9,0h-2a.65.65,0,1,1,0-1.3h2a.65.65,0,0,1,0,1.3Zm-9,0h-2a.65.65,0,1,1,0-1.3h2a.65.65,0,0,1,0,1.3Zm-9,0h-2a.65.65,0,1,1,0-1.3h2a.65.65,0,0,1,0,1.3Zm-9,0h-2a.65.65,0,1,1,0-1.3h2a.65.65,0,0,1,0,1.3Zm-9,0h-2a.65.65,0,1,1,0-1.3h2a.65.65,0,0,1,0,1.3Zm-9,0h-2a.65.65,0,1,1,0-1.3h2a.65.65,0,0,1,0,1.3Zm-9,0h-2a.65.65,0,1,1,0-1.3h2a.65.65,0,0,1,0,1.3Zm-9,0h-2a.65.65,0,0,1,0-1.3h2a.65.65,0,0,1,0,1.3Zm-9,0h-2a.65.65,0,1,1,0-1.3h2a.65.65,0,0,1,0,1.3Zm-9,0h-2a.65.65,0,1,1,0-1.3h2a.65.65,0,0,1,0,1.3Zm-9,0h-2a.65.65,0,1,1,0-1.3h2a.65.65,0,0,1,0,1.3Zm-9-.23h-.13a12.78,12.78,0,0,1-2-.59.65.65,0,0,1-.38-.84.65.65,0,0,1,.84-.37,11.46,11.46,0,0,0,1.82.52.65.65,0,0,1-.12,1.29Zm169.19-1.81a.65.65,0,0,1-.36-1.19,10.48,10.48,0,0,0,1.47-1.19.66.66,0,0,1,.92,0,.64.64,0,0,1,0,.91,12.23,12.23,0,0,1-1.64,1.33A.72.72,0,0,1,809.53,88.32Zm-176.59-3a.66.66,0,0,1-.53-.28,13.16,13.16,0,0,1-1.07-1.82.65.65,0,1,1,1.17-.56,12,12,0,0,0,1,1.63.65.65,0,0,1-.53,1ZM814.5,81l-.14,0a.65.65,0,0,1-.5-.77,10.9,10.9,0,0,0,.26-1.88.69.69,0,0,1,.68-.62.67.67,0,0,1,.62.69,12.23,12.23,0,0,1-.29,2.09A.64.64,0,0,1,814.5,81ZM630.76,76.76a.66.66,0,0,1-.65-.65v-2a.65.65,0,0,1,1.3,0v2A.66.66,0,0,1,630.76,76.76Zm184-4.73a.65.65,0,0,1-.65-.65v-2a.65.65,0,1,1,1.3,0v2A.65.65,0,0,1,814.78,72Zm-184-4.3a.66.66,0,0,1-.65-.65v-2a.65.65,0,0,1,1.3,0v2A.66.66,0,0,1,630.76,67.73Zm184-4.73a.65.65,0,0,1-.65-.65v-2a.65.65,0,1,1,1.3,0v2A.65.65,0,0,1,814.78,63Zm-184-4.3a.66.66,0,0,1-.65-.66V56a.65.65,0,0,1,1.3,0v2A.66.66,0,0,1,630.76,58.7Zm184-4.73a.65.65,0,0,1-.65-.65v-2a.65.65,0,0,1,1.3,0v2A.65.65,0,0,1,814.78,54Zm-184-4.31h0a.65.65,0,0,1-.62-.68,13.31,13.31,0,0,1,.29-2.09.65.65,0,1,1,1.27.28,10.9,10.9,0,0,0-.26,1.88A.64.64,0,0,1,630.77,49.66ZM813.6,45.12a.63.63,0,0,1-.58-.37,12.28,12.28,0,0,0-1-1.63.64.64,0,0,1,.15-.9.65.65,0,0,1,.91.15,12.29,12.29,0,0,1,1.08,1.82.66.66,0,0,1-.31.87A.67.67,0,0,1,813.6,45.12ZM634.46,41.66a.63.63,0,0,1-.47-.2.65.65,0,0,1,0-.92,13,13,0,0,1,1.64-1.32.66.66,0,0,1,.91.18.65.65,0,0,1-.18.9,11.18,11.18,0,0,0-1.48,1.19A.68.68,0,0,1,634.46,41.66Zm172.65-2.5a.67.67,0,0,1-.24,0,10.5,10.5,0,0,0-1.82-.52.65.65,0,0,1,.25-1.28,13.17,13.17,0,0,1,2,.58.65.65,0,0,1,.37.84A.64.64,0,0,1,807.11,39.16Zm-8.94-.77h-2a.65.65,0,1,1,0-1.3h2a.65.65,0,1,1,0,1.3Zm-9,0h-2a.65.65,0,1,1,0-1.3h2a.65.65,0,0,1,0,1.3Zm-9,0h-2a.65.65,0,1,1,0-1.3h2a.65.65,0,0,1,0,1.3Zm-9,0h-2a.65.65,0,0,1,0-1.3h2a.65.65,0,0,1,0,1.3Zm-9,0h-2a.65.65,0,1,1,0-1.3h2a.65.65,0,1,1,0,1.3Zm-9,0h-2a.65.65,0,1,1,0-1.3h2a.65.65,0,0,1,0,1.3Zm-9,0h-2a.65.65,0,1,1,0-1.3h2a.65.65,0,0,1,0,1.3Zm-9,0h-2a.65.65,0,0,1,0-1.3h2a.65.65,0,0,1,0,1.3Zm-9,0h-2a.65.65,0,1,1,0-1.3h2a.65.65,0,1,1,0,1.3Zm-9,0h-2a.65.65,0,1,1,0-1.3h2a.65.65,0,0,1,0,1.3Zm-9,0h-2a.65.65,0,1,1,0-1.3h2a.65.65,0,1,1,0,1.3Zm-9,0h-2a.65.65,0,0,1,0-1.3h2a.65.65,0,0,1,0,1.3Zm-9,0h-2a.65.65,0,1,1,0-1.3h2a.65.65,0,1,1,0,1.3Zm-9,0h-2a.65.65,0,1,1,0-1.3h2a.65.65,0,0,1,0,1.3Zm-9,0h-2a.65.65,0,1,1,0-1.3h2a.65.65,0,0,1,0,1.3Zm-9,0h-2a.65.65,0,0,1,0-1.3h2a.65.65,0,0,1,0,1.3Zm-9,0h-2a.65.65,0,1,1,0-1.3h2a.65.65,0,1,1,0,1.3Zm-9,0h-2a.66.66,0,0,1-.66-.65.68.68,0,0,1,.73-.65h1.91a.65.65,0,0,1,0,1.3Z"/><path d="M657.55,75.19A11.47,11.47,0,1,1,669,63.72,11.48,11.48,0,0,1,657.55,75.19Zm0-21.64a10.17,10.17,0,1,0,10.17,10.17A10.19,10.19,0,0,0,657.55,53.55Z"/><path d="M773.23,59.19H681.44a.65.65,0,0,1,0-1.3h91.79a.65.65,0,0,1,0,1.3Z"/><path d="M742.4,69.69h-61a.65.65,0,0,1,0-1.3h61a.65.65,0,1,1,0,1.3Z"/><line class="cls-1" x1="413.29" y1="133.53" x2="196" y2="133.53"/><path d="M413.29,134.18h-1a.65.65,0,0,1,0-1.3h1a.65.65,0,0,1,0,1.3Z"/><path d="M405.29,134.18h-2a.65.65,0,0,1,0-1.3h2a.65.65,0,0,1,0,1.3Zm-9,0h-2a.65.65,0,0,1,0-1.3h2a.65.65,0,0,1,0,1.3Zm-9,0h-2a.65.65,0,0,1,0-1.3h2a.65.65,0,0,1,0,1.3Zm-9,0h-2a.65.65,0,0,1,0-1.3h2a.65.65,0,1,1,0,1.3Zm-9,0h-2a.65.65,0,0,1,0-1.3h2a.65.65,0,1,1,0,1.3Zm-9,0h-2a.65.65,0,0,1,0-1.3h2a.65.65,0,0,1,0,1.3Zm-9,0h-2a.65.65,0,0,1,0-1.3h2a.65.65,0,0,1,0,1.3Zm-9,0h-2a.65.65,0,0,1,0-1.3h2a.65.65,0,0,1,0,1.3Zm-9,0h-2a.65.65,0,0,1,0-1.3h2a.65.65,0,0,1,0,1.3Zm-9,0h-2a.65.65,0,0,1,0-1.3h2a.65.65,0,0,1,0,1.3Zm-9,0h-2a.65.65,0,1,1,0-1.3h2a.65.65,0,0,1,0,1.3Zm-9,0h-2a.65.65,0,1,1,0-1.3h2a.65.65,0,1,1,0,1.3Zm-9,0h-2a.65.65,0,1,1,0-1.3h2a.65.65,0,1,1,0,1.3Zm-9,0h-2a.65.65,0,1,1,0-1.3h2a.65.65,0,1,1,0,1.3Zm-9,0h-2a.65.65,0,0,1,0-1.3h2a.65.65,0,1,1,0,1.3Zm-9,0h-2a.65.65,0,0,1,0-1.3h2a.65.65,0,1,1,0,1.3Zm-9,0h-2a.65.65,0,0,1,0-1.3h2a.65.65,0,1,1,0,1.3Zm-9,0h-2a.65.65,0,0,1,0-1.3h2a.65.65,0,0,1,0,1.3Zm-9,0h-2a.65.65,0,0,1,0-1.3h2a.65.65,0,0,1,0,1.3Zm-9,0h-2a.65.65,0,0,1,0-1.3h2a.65.65,0,0,1,0,1.3Zm-9,0h-2a.65.65,0,0,1,0-1.3h2a.65.65,0,0,1,0,1.3Zm-9,0h-2a.65.65,0,0,1,0-1.3h2a.65.65,0,0,1,0,1.3Zm-9,0h-2a.65.65,0,0,1,0-1.3h2a.65.65,0,0,1,0,1.3Z"/><path d="M198.41,134.18h-1a.65.65,0,0,1,0-1.3h1a.65.65,0,0,1,0,1.3Z"/><polygon points="201.72 128.21 202.61 129.16 197.91 133.53 202.61 137.89 201.72 138.84 196 133.53 201.72 128.21"/><path d="M323.52,152.46a.62.62,0,0,1-.46-.19L288,117.17a.64.64,0,0,1,0-.92.66.66,0,0,1,.92,0l35.1,35.1a.66.66,0,0,1,0,.92A.65.65,0,0,1,323.52,152.46Z"/><path d="M288.42,152.46a.62.62,0,0,1-.46-.19.64.64,0,0,1,0-.92l35.1-35.1a.65.65,0,0,1,.92.92l-35.1,35.1A.65.65,0,0,1,288.42,152.46Z"/><path d="M737.71,152.46a.62.62,0,0,1-.46-.19l-35.1-35.1a.64.64,0,0,1,0-.92.66.66,0,0,1,.92,0l35.1,35.1a.66.66,0,0,1,0,.92A.65.65,0,0,1,737.71,152.46Z"/><path d="M702.61,152.46a.62.62,0,0,1-.46-.19.64.64,0,0,1,0-.92l35.1-35.1a.65.65,0,1,1,.92.92l-35.1,35.1A.65.65,0,0,1,702.61,152.46Z"/></g></g></svg>