<svg xmlns="http://www.w3.org/2000/svg" xmlns:xlink="http://www.w3.org/1999/xlink" viewBox="0 0 94.06 95.71"><defs><style>.cls-1{fill:#fff;}.cls-2{fill:url(#名称未設定グラデーション_15);}</style><radialGradient id="名称未設定グラデーション_15" cx="47.03" cy="47.86" r="47.45" gradientUnits="userSpaceOnUse"><stop offset="0" stop-color="#fff"/><stop offset="0.01" stop-color="#f6f6f6"/><stop offset="0.05" stop-color="#c8c8c8"/><stop offset="0.09" stop-color="#9d9d9d"/><stop offset="0.14" stop-color="#777"/><stop offset="0.2" stop-color="#575757"/><stop offset="0.25" stop-color="#3b3b3b"/><stop offset="0.32" stop-color="#252525"/><stop offset="0.4" stop-color="#141414"/><stop offset="0.49" stop-color="#090909"/><stop offset="0.63" stop-color="#020202"/><stop offset="1"/></radialGradient></defs><g id="レイヤー_2" data-name="レイヤー 2"><g id="レイヤー_1-2" data-name="レイヤー 1"><path class="cls-1" d="M41.35,59a.47.47,0,0,1-.35-.15.48.48,0,0,1,0-.7L52.12,47,40.88,35.78a.5.5,0,0,1,0-.7.5.5,0,0,1,.71,0L53.54,47,41.7,58.85A.47.47,0,0,1,41.35,59Z"/><path class="cls-2" d="M46.3,95.71c-10.78,0-23.36-6.42-33.23-17.07C.57,65.16-.21,52.59,0,47.81.45,39.52,3.35,27.2,14.76,15.59,18.5,11.78,29.89.19,47.86,0h.43C71.93,0,85.47,20.36,86,21.23c6,9.24,6.77,18.53,7.49,27.51l0,.27c.73,9.16,1.37,17.06-3.24,24.67C86.39,80.17,80.65,83.1,72,87.53c-8,4.07-14.81,7.57-24.09,8.13C47.37,95.7,46.84,95.71,46.3,95.71ZM48.29,1h-.42c-17.56.19-28.73,11.56-32.4,15.29C4.28,27.67,1.44,39.74,1,47.86.3,62.22,10.62,74.53,13.8,78c10.17,11,23.2,17.35,34,16.71,9.07-.55,15.53-3.85,23.69-8,8.53-4.35,14.16-7.23,17.94-13.48,4.43-7.33,3.81-15.09,3.09-24.07l0-.27c-.71-8.86-1.44-18-7.33-27C84.64,20.92,71.39,1,48.29,1Z"/></g></g></svg>